<svg width="217" height="52" viewBox="0 0 217 52" fill="none" xmlns="http://www.w3.org/2000/svg">
<path d="M47.6114 50.1462L43.7787 51.5306C39.8238 52.9607 35.4414 50.9373 33.9907 46.9818L17.4993 1.8431L21.332 0.458664C25.2869 -0.971412 29.6693 1.05199 31.12 5.00752L47.6114 50.1462Z" fill="#21EB1E"/>
<path d="M3.83274 51.5307L0 50.1463L8.1083 27.9497C9.54366 24.0094 13.9261 21.9708 17.8963 23.4008L21.729 24.7853L13.6207 46.9971C12.1853 50.9374 7.8029 52.976 3.83274 51.5307Z" fill="#21EB1E"/>
<path d="M71.6462 8.27832L58.8959 43.1326H63.4157C65.3092 43.1326 67.0042 41.9308 67.615 40.1508L75.7996 16.5393L85.0073 43.1478H92.795L80.0752 8.27832H71.6462Z" fill="white"/>
<path d="M103.453 19.4299C102.568 20.1753 101.804 21.0729 101.148 22.1075L100.735 19.3994L100.46 17.0261H93.9402V43.1174H96.8873C99.3152 43.1174 101.285 41.1549 101.285 38.7359V30.6575C101.285 29.4252 101.438 28.3907 101.743 27.5539C102.048 26.7172 102.491 26.063 103.072 25.5762C103.637 25.0893 104.324 24.7394 105.133 24.5264C105.927 24.3134 106.828 24.2069 107.805 24.2069H110.248V17.0413C108.905 17.0413 107.653 17.2543 106.507 17.6803C105.347 18.1063 104.324 18.6844 103.453 19.4299Z" fill="white"/>
<path d="M132.436 19.6276C130.649 18.5018 128.633 17.9389 126.389 17.9389C124.556 17.9389 123.029 18.304 121.777 19.019C120.54 19.7341 119.517 20.6469 118.738 21.7575V12.675C118.738 10.256 116.769 8.29346 114.341 8.29346H111.394V43.1478H117.914L118.754 40.2115C119.273 40.8961 119.899 41.5047 120.647 42.0372C121.38 42.5696 122.235 42.9956 123.197 43.2847C124.159 43.5737 125.243 43.7259 126.45 43.7259C128.71 43.7259 130.71 43.1782 132.481 42.0676C134.253 40.957 135.642 39.4356 136.696 37.4731C137.734 35.5258 138.269 33.3198 138.269 30.8856C138.269 28.3754 137.749 26.1542 136.696 24.2221C135.627 22.2899 134.207 20.7534 132.436 19.6276ZM129.962 34.2326C129.443 35.1911 128.71 35.9517 127.778 36.4994C126.847 37.0471 125.793 37.3362 124.617 37.3362C123.411 37.3362 122.342 37.0623 121.411 36.5299C120.479 35.9974 119.746 35.2215 119.227 34.2326C118.708 33.2437 118.448 32.1331 118.448 30.8856C118.448 29.5772 118.708 28.4514 119.227 27.493C119.746 26.5345 120.479 25.7739 121.411 25.1957C122.342 24.6328 123.411 24.3438 124.617 24.3438C125.793 24.3438 126.847 24.6176 127.778 25.1805C128.71 25.7282 129.443 26.5041 129.962 27.493C130.481 28.4819 130.741 29.6229 130.741 30.8856C130.741 32.1483 130.481 33.2741 129.962 34.2326Z" fill="white"/>
<path d="M142.315 17.0413H139.368V43.1325H146.713V21.438C146.713 19.0038 144.743 17.0413 142.315 17.0413Z" fill="white"/>
<path d="M142.987 15.5352C144.071 15.5352 144.957 15.1853 145.659 14.4855C146.362 13.7856 146.713 12.9337 146.713 11.9296C146.713 10.8951 146.362 10.0127 145.659 9.32806C144.957 8.62823 144.071 8.27832 142.987 8.27832C141.979 8.27832 141.124 8.62823 140.422 9.32806C139.719 10.0279 139.368 10.8951 139.368 11.9296C139.368 12.9337 139.719 13.7856 140.422 14.4855C141.124 15.1853 141.979 15.5352 142.987 15.5352Z" fill="white"/>
<path d="M159.402 16.3263C159.402 13.9074 157.432 11.9448 155.004 11.9448H152.073V17.0566H147.858V23.1572H152.073V34.1719C152.073 36.4235 152.454 38.1882 153.202 39.4966C153.951 40.805 155.02 41.733 156.394 42.3111C157.768 42.874 159.341 43.1631 161.097 43.1631H165.754V36.9559H162.38C161.296 36.9559 160.547 36.7582 160.104 36.3474C159.662 35.9366 159.448 35.252 159.448 34.2784V23.1724H165.77V17.0414H159.448V16.3263H159.402Z" fill="white"/>
<path d="M186.628 30.049C186.811 31.0836 186.689 32.4376 185.727 33.8829C185.727 33.8829 185.727 33.8981 185.712 33.8981C185.651 33.9742 185.605 34.0502 185.544 34.1415C185.529 34.1719 185.514 34.1871 185.483 34.2176C185.468 34.2328 185.468 34.248 185.452 34.248C185.407 34.3088 185.361 34.3697 185.315 34.4153C185.269 34.4762 185.223 34.5371 185.178 34.5827C185.162 34.5979 185.147 34.6131 185.132 34.6435C185.101 34.6892 185.055 34.7196 185.025 34.7653C184.994 34.7957 184.964 34.8413 184.918 34.8718C181.788 38.1731 178.062 35.5259 178.062 35.5259L188.781 21.2404C188.476 20.9361 188.17 20.6471 187.85 20.4036C187.529 20.145 187.239 19.9168 186.979 19.719C185.04 18.2737 183.025 17.4218 180.902 17.1784C178.795 16.9197 176.749 17.224 174.764 18.0607C172.778 18.8975 171.053 20.3124 169.572 22.2901C168.045 24.3287 167.159 26.4434 166.93 28.6646C166.686 30.8858 167.052 33.0157 167.999 35.0695C168.946 37.1234 170.442 38.9034 172.488 40.4247C174.473 41.9004 176.565 42.7828 178.749 43.0414C180.933 43.3153 183.025 42.9958 185.04 42.083C187.041 41.1854 188.812 39.7097 190.339 37.6711C191.499 36.1345 192.263 34.5066 192.629 32.7875C192.828 31.8595 192.919 30.9162 192.919 30.0186L186.628 30.049ZM173.786 31.4487C173.298 30.4598 173.13 29.4861 173.237 28.5125C173.359 27.5388 173.725 26.6412 174.351 25.8045C175.176 24.7091 176.199 24.0397 177.421 23.7963C178.642 23.5528 179.833 23.8115 180.963 24.5722L174.748 32.8483C174.351 32.4072 174.031 31.9355 173.786 31.4487Z" fill="white"/>
<path d="M216.954 17.0413H209.029H208.556L208.541 17.0565L188.98 43.1325H197.378L202.982 35.6779L208.571 43.1325H217L207.197 30.0641L216.954 17.0413Z" fill="white"/>
<path d="M196.523 23.1116H201.959L199.272 19.4603C198.142 17.9389 196.355 17.0261 194.462 17.0261H188.98L191.744 20.7078C192.858 22.2292 194.645 23.1116 196.523 23.1116Z" fill="white"/>
</svg>
