<svg width="217" height="52" viewBox="0 0 217 52" fill="none" xmlns="http://www.w3.org/2000/svg">
<path d="M47.6114 50.144L43.7787 51.5284C39.8238 52.9585 35.4414 50.9351 33.9907 46.9796L17.4993 1.8409L21.332 0.456467C25.2869 -0.973609 29.6693 1.0498 31.12 5.00533L47.6114 50.144Z" fill="#21EB1E"/>
<path d="M3.83274 51.5285L0 50.1441L8.1083 27.9475C9.54366 24.0072 13.9261 21.9686 17.8963 23.3986L21.729 24.7831L13.6207 46.9949C12.1853 50.9352 7.8029 52.9738 3.83274 51.5285Z" fill="#21EB1E"/>
<path d="M71.6462 8.27637L58.8959 43.1307H63.4157C65.3092 43.1307 67.0042 41.9288 67.615 40.1488L75.7996 16.5373L85.0073 43.1459H92.795L80.0752 8.27637H71.6462Z" fill="#111111"/>
<path d="M103.453 19.4279C102.568 20.1734 101.804 21.071 101.148 22.1055L100.735 19.3975L100.46 17.0242H93.9402V43.1155H96.8873C99.3152 43.1155 101.285 41.1529 101.285 38.7339V30.6555C101.285 29.4232 101.438 28.3887 101.743 27.552C102.048 26.7152 102.491 26.061 103.072 25.5742C103.637 25.0874 104.324 24.7375 105.133 24.5245C105.927 24.3115 106.828 24.205 107.805 24.205H110.248V17.0394C108.905 17.0394 107.653 17.2524 106.507 17.6784C105.347 18.1043 104.324 18.6824 103.453 19.4279Z" fill="#111111"/>
<path d="M132.436 19.6256C130.649 18.4998 128.633 17.9369 126.389 17.9369C124.556 17.9369 123.029 18.302 121.777 19.0171C120.54 19.7321 119.517 20.6449 118.738 21.7555V12.673C118.738 10.2541 116.769 8.2915 114.341 8.2915H111.394V43.1458H117.914L118.754 40.2096C119.273 40.8942 119.899 41.5027 120.647 42.0352C121.38 42.5677 122.235 42.9937 123.197 43.2827C124.159 43.5718 125.243 43.7239 126.45 43.7239C128.71 43.7239 130.71 43.1762 132.481 42.0656C134.253 40.955 135.642 39.4337 136.696 37.4711C137.734 35.5238 138.269 33.3178 138.269 30.8837C138.269 28.3734 137.749 26.1522 136.696 24.2201C135.627 22.288 134.207 20.7514 132.436 19.6256ZM129.962 34.2306C129.443 35.1891 128.71 35.9498 127.778 36.4975C126.847 37.0452 125.793 37.3342 124.617 37.3342C123.411 37.3342 122.342 37.0604 121.411 36.5279C120.479 35.9954 119.746 35.2195 119.227 34.2306C118.708 33.2418 118.448 32.1312 118.448 30.8837C118.448 29.5753 118.708 28.4495 119.227 27.491C119.746 26.5326 120.479 25.7719 121.411 25.1938C122.342 24.6309 123.411 24.3418 124.617 24.3418C125.793 24.3418 126.847 24.6157 127.778 25.1786C128.71 25.7263 129.443 26.5022 129.962 27.491C130.481 28.4799 130.741 29.6209 130.741 30.8837C130.741 32.1464 130.481 33.2722 129.962 34.2306Z" fill="#111111"/>
<path d="M142.315 17.0393H139.368V43.1306H146.713V21.436C146.713 19.0019 144.743 17.0393 142.315 17.0393Z" fill="#111111"/>
<path d="M142.987 15.5332C144.071 15.5332 144.957 15.1833 145.659 14.4835C146.362 13.7837 146.713 12.9317 146.713 11.9276C146.713 10.8931 146.362 10.0107 145.659 9.3261C144.957 8.62628 144.071 8.27637 142.987 8.27637C141.979 8.27637 141.124 8.62628 140.422 9.3261C139.719 10.0259 139.368 10.8931 139.368 11.9276C139.368 12.9317 139.719 13.7837 140.422 14.4835C141.124 15.1833 141.979 15.5332 142.987 15.5332Z" fill="#111111"/>
<path d="M159.402 16.3244C159.402 13.9054 157.432 11.9429 155.004 11.9429H152.073V17.0546H147.858V23.1553H152.073V34.1699C152.073 36.4215 152.454 38.1863 153.202 39.4947C153.951 40.803 155.02 41.7311 156.394 42.3092C157.768 42.8721 159.341 43.1611 161.097 43.1611H165.754V36.954H162.38C161.296 36.954 160.547 36.7562 160.104 36.3454C159.662 35.9347 159.448 35.2501 159.448 34.2764V23.1705H165.77V17.0394H159.448V16.3244H159.402Z" fill="#111111"/>
<path d="M186.628 30.0471C186.811 31.0816 186.689 32.4356 185.727 33.8809C185.727 33.8809 185.727 33.8961 185.712 33.8961C185.651 33.9722 185.605 34.0483 185.544 34.1395C185.529 34.17 185.514 34.1852 185.483 34.2156C185.468 34.2308 185.468 34.246 185.452 34.246C185.407 34.3069 185.361 34.3677 185.315 34.4134C185.269 34.4742 185.223 34.5351 185.178 34.5807C185.162 34.596 185.147 34.6112 185.132 34.6416C185.101 34.6872 185.055 34.7177 185.025 34.7633C184.994 34.7937 184.964 34.8394 184.918 34.8698C181.788 38.1711 178.062 35.524 178.062 35.524L188.781 21.2384C188.476 20.9342 188.17 20.6451 187.85 20.4017C187.529 20.1431 187.239 19.9149 186.979 19.7171C185.04 18.2718 183.025 17.4198 180.902 17.1764C178.795 16.9178 176.749 17.222 174.764 18.0588C172.778 18.8955 171.053 20.3104 169.572 22.2882C168.045 24.3268 167.159 26.4415 166.93 28.6627C166.686 30.8838 167.052 33.0137 167.999 35.0676C168.946 37.1214 170.442 38.9014 172.488 40.4228C174.473 41.8985 176.565 42.7809 178.749 43.0395C180.933 43.3133 183.025 42.9938 185.04 42.081C187.041 41.1834 188.812 39.7077 190.339 37.6691C191.499 36.1325 192.263 34.5047 192.629 32.7855C192.828 31.8575 192.919 30.9143 192.919 30.0167L186.628 30.0471ZM173.786 31.4467C173.298 30.4579 173.13 29.4842 173.237 28.5105C173.359 27.5369 173.725 26.6393 174.351 25.8025C175.176 24.7071 176.199 24.0377 177.421 23.7943C178.642 23.5509 179.833 23.8095 180.963 24.5702L174.748 32.8464C174.351 32.4052 174.031 31.9336 173.786 31.4467Z" fill="#111111"/>
<path d="M216.954 17.0393H209.029H208.556L208.541 17.0545L188.98 43.1306H197.378L202.982 35.6759L208.571 43.1306H217L207.197 30.0621L216.954 17.0393Z" fill="#111111"/>
<path d="M196.523 23.1096H201.959L199.272 19.4583C198.142 17.937 196.355 17.0242 194.462 17.0242H188.98L191.744 20.7059C192.858 22.2272 194.645 23.1096 196.523 23.1096Z" fill="#111111"/>
</svg>
